<?xml version="1.0" encoding="us-ascii" standalone="no"?><svg xmlns="http://www.w3.org/2000/svg" xmlns:xlink="http://www.w3.org/1999/xlink" contentStyleType="text/css" height="1486px" preserveAspectRatio="none" style="width:1226px;height:1486px;background:#FFFFFF;" version="1.1" viewBox="0 0 1226 1486" width="1226px" zoomAndPan="magnify"><defs/><g><!--class Vertex--><g id="elem_Vertex"><rect codeLine="2" fill="#F1F1F1" height="295.8829" id="Vertex" rx="2.5" ry="2.5" style="stroke:#181818;stroke-width:0.5;" width="189" x="11.5" y="884"/><ellipse cx="80.75" cy="900" fill="#ADD1B2" rx="11" ry="11" style="stroke:#181818;stroke-width:1.0;"/><path d="M83.7188,905.6406 Q83.1406,905.9375 82.5,906.0781 Q81.8594,906.2344 81.1563,906.2344 Q78.6563,906.2344 77.3281,904.5938 Q76.0156,902.9375 76.0156,899.8125 Q76.0156,896.6875 77.3281,895.0313 Q78.6563,893.375 81.1563,893.375 Q81.8594,893.375 82.5,893.5313 Q83.1563,893.6875 83.7188,893.9844 L83.7188,896.7031 Q83.0938,896.125 82.5,895.8594 Q81.9063,895.5781 81.2813,895.5781 Q79.9375,895.5781 79.25,896.6563 Q78.5625,897.7188 78.5625,899.8125 Q78.5625,901.9063 79.25,902.9844 Q79.9375,904.0469 81.2813,904.0469 Q81.9063,904.0469 82.5,903.7813 Q83.0938,903.5 83.7188,902.9219 L83.7188,905.6406 Z " fill="#000000"/><text fill="#000000" font-family="sans-serif" font-size="14" lengthAdjust="spacing" textLength="42" x="101.25" y="905.432">Vertex</text><line style="stroke:#181818;stroke-width:0.5;" x1="12.5" x2="199.5" y1="916" y2="916"/><rect fill="none" height="6" style="stroke:#C82930;stroke-width:1.0;" width="6" x="19.5" y="928.034"/><text fill="#000000" font-family="sans-serif" font-size="14" lengthAdjust="spacing" textLength="85" x="31.5" y="934.9659">path : Edge*</text><rect fill="none" height="6" style="stroke:#C82930;stroke-width:1.0;" width="6" x="19.5" y="947.1019"/><text fill="#000000" font-family="sans-serif" font-size="14" lengthAdjust="spacing" textLength="114" x="31.5" y="954.0339">walkPath : Edge*</text><rect fill="none" height="6" style="stroke:#C82930;stroke-width:1.0;" width="6" x="19.5" y="966.1698"/><text fill="#000000" font-family="sans-serif" font-size="14" lengthAdjust="spacing" textLength="85" x="31.5" y="973.1018">visited : bool</text><rect fill="none" height="6" style="stroke:#C82930;stroke-width:1.0;" width="6" x="19.5" y="985.2377"/><text fill="#000000" font-family="sans-serif" font-size="14" lengthAdjust="spacing" textLength="83" x="31.5" y="992.1697">parking - int</text><rect fill="none" height="6" style="stroke:#C82930;stroke-width:1.0;" width="6" x="19.5" y="1004.3056"/><text fill="#000000" font-family="sans-serif" font-size="14" lengthAdjust="spacing" textLength="57" x="31.5" y="1011.2376">info - int</text><rect fill="none" height="6" style="stroke:#C82930;stroke-width:1.0;" width="6" x="19.5" y="1023.3735"/><text fill="#000000" font-family="sans-serif" font-size="14" lengthAdjust="spacing" textLength="136" x="31.5" y="1030.3055">adj : vector&lt;Edge *&gt;</text><line style="stroke:#181818;stroke-width:0.5;" x1="12.5" x2="199.5" y1="1038.4075" y2="1038.4075"/><ellipse cx="22.5" cy="1053.4415" fill="#84BE84" rx="3" ry="3" style="stroke:#038048;stroke-width:1.0;"/><text fill="#000000" font-family="sans-serif" font-size="14" lengthAdjust="spacing" textLength="140" x="31.5" y="1057.3734">Vertex(in : int, p : int)</text><ellipse cx="22.5" cy="1072.5094" fill="#84BE84" rx="3" ry="3" style="stroke:#038048;stroke-width:1.0;"/><text fill="#000000" font-family="sans-serif" font-size="14" lengthAdjust="spacing" textLength="111" x="31.5" y="1076.4414">getParking() : int</text><ellipse cx="22.5" cy="1091.5773" fill="#84BE84" rx="3" ry="3" style="stroke:#038048;stroke-width:1.0;"/><text fill="#000000" font-family="sans-serif" font-size="14" lengthAdjust="spacing" textLength="87" x="31.5" y="1095.5093">getInfo() : int</text><ellipse cx="22.5" cy="1110.6452" fill="#84BE84" rx="3" ry="3" style="stroke:#038048;stroke-width:1.0;"/><text fill="#000000" font-family="sans-serif" font-size="14" lengthAdjust="spacing" textLength="114" x="31.5" y="1114.5772">getPath() : Edge*</text><ellipse cx="22.5" cy="1129.7131" fill="#84BE84" rx="3" ry="3" style="stroke:#038048;stroke-width:1.0;"/><text fill="#000000" font-family="sans-serif" font-size="14" lengthAdjust="spacing" textLength="146" x="31.5" y="1133.6451">getWalkPath() : Edge*</text><ellipse cx="22.5" cy="1148.781" fill="#84BE84" rx="3" ry="3" style="stroke:#038048;stroke-width:1.0;"/><text fill="#000000" font-family="sans-serif" font-size="14" lengthAdjust="spacing" textLength="163" x="31.5" y="1152.713">getAdj() : vector&lt;Edge*&gt;</text><ellipse cx="22.5" cy="1167.849" fill="#84BE84" rx="3" ry="3" style="stroke:#038048;stroke-width:1.0;"/><text fill="#000000" font-family="sans-serif" font-size="14" lengthAdjust="spacing" textLength="105" x="31.5" y="1171.7809">isVisited() : bool</text></g><!--class Edge--><g id="elem_Edge"><rect codeLine="19" fill="#F1F1F1" height="238.6792" id="Edge" rx="2.5" ry="2.5" style="stroke:#181818;stroke-width:0.5;" width="410" x="350" y="1241"/><ellipse cx="533.75" cy="1257" fill="#ADD1B2" rx="11" ry="11" style="stroke:#181818;stroke-width:1.0;"/><path d="M536.7188,1262.6406 Q536.1406,1262.9375 535.5,1263.0781 Q534.8594,1263.2344 534.1563,1263.2344 Q531.6563,1263.2344 530.3281,1261.5938 Q529.0156,1259.9375 529.0156,1256.8125 Q529.0156,1253.6875 530.3281,1252.0313 Q531.6563,1250.375 534.1563,1250.375 Q534.8594,1250.375 535.5,1250.5313 Q536.1563,1250.6875 536.7188,1250.9844 L536.7188,1253.7031 Q536.0938,1253.125 535.5,1252.8594 Q534.9063,1252.5781 534.2813,1252.5781 Q532.9375,1252.5781 532.25,1253.6563 Q531.5625,1254.7188 531.5625,1256.8125 Q531.5625,1258.9063 532.25,1259.9844 Q532.9375,1261.0469 534.2813,1261.0469 Q534.9063,1261.0469 535.5,1260.7813 Q536.0938,1260.5 536.7188,1259.9219 L536.7188,1262.6406 Z " fill="#000000"/><text fill="#000000" font-family="sans-serif" font-size="14" lengthAdjust="spacing" textLength="34" x="554.25" y="1262.432">Edge</text><line style="stroke:#181818;stroke-width:0.5;" x1="351" x2="759" y1="1273" y2="1273"/><rect fill="none" height="6" style="stroke:#C82930;stroke-width:1.0;" width="6" x="358" y="1285.034"/><text fill="#000000" font-family="sans-serif" font-size="14" lengthAdjust="spacing" textLength="89" x="370" y="1291.9659">orig : Vertex*</text><rect fill="none" height="6" style="stroke:#C82930;stroke-width:1.0;" width="6" x="358" y="1304.1019"/><text fill="#000000" font-family="sans-serif" font-size="14" lengthAdjust="spacing" textLength="91" x="370" y="1311.0339">dest : Vertex*</text><rect fill="none" height="6" style="stroke:#C82930;stroke-width:1.0;" width="6" x="358" y="1323.1698"/><text fill="#000000" font-family="sans-serif" font-size="14" lengthAdjust="spacing" textLength="93" x="370" y="1330.1018">drive : double</text><rect fill="none" height="6" style="stroke:#C82930;stroke-width:1.0;" width="6" x="358" y="1342.2377"/><text fill="#000000" font-family="sans-serif" font-size="14" lengthAdjust="spacing" textLength="89" x="370" y="1349.1697">walk : double</text><text fill="#000000" font-family="sans-serif" font-size="14" lengthAdjust="spacing" textLength="4" x="370" y="1368.2376">&#160;</text><ellipse cx="361" cy="1383.3735" fill="none" rx="3" ry="3" style="stroke:#038048;stroke-width:1.0;"/><text fill="#000000" font-family="sans-serif" font-size="14" lengthAdjust="spacing" textLength="116" x="370" y="1387.3055">getDrive : double</text><ellipse cx="361" cy="1402.4415" fill="none" rx="3" ry="3" style="stroke:#038048;stroke-width:1.0;"/><text fill="#000000" font-family="sans-serif" font-size="14" lengthAdjust="spacing" textLength="113" x="370" y="1406.3734">getWalk : double</text><line style="stroke:#181818;stroke-width:0.5;" x1="351" x2="759" y1="1414.4754" y2="1414.4754"/><ellipse cx="361" cy="1429.5094" fill="#84BE84" rx="3" ry="3" style="stroke:#038048;stroke-width:1.0;"/><text fill="#000000" font-family="sans-serif" font-size="14" lengthAdjust="spacing" textLength="384" x="370" y="1433.4414">Edge(orig : Vertex*, dest : Vertex*, d : double, w : double)</text><ellipse cx="361" cy="1448.5773" fill="#84BE84" rx="3" ry="3" style="stroke:#038048;stroke-width:1.0;"/><text fill="#000000" font-family="sans-serif" font-size="14" lengthAdjust="spacing" textLength="122" x="370" y="1452.5093">getOrig() : Vertex*</text><ellipse cx="361" cy="1467.6452" fill="#84BE84" rx="3" ry="3" style="stroke:#038048;stroke-width:1.0;"/><text fill="#000000" font-family="sans-serif" font-size="14" lengthAdjust="spacing" textLength="122" x="370" y="1471.5772">getDest() : Vertex*</text></g><!--class Graph--><g id="elem_Graph"><rect codeLine="32" fill="#F1F1F1" height="162.4075" id="Graph" rx="2.5" ry="2.5" style="stroke:#181818;stroke-width:0.5;" width="467" x="441.5" y="661"/><ellipse cx="649.75" cy="677" fill="#ADD1B2" rx="11" ry="11" style="stroke:#181818;stroke-width:1.0;"/><path d="M652.7188,682.6406 Q652.1406,682.9375 651.5,683.0781 Q650.8594,683.2344 650.1563,683.2344 Q647.6563,683.2344 646.3281,681.5938 Q645.0156,679.9375 645.0156,676.8125 Q645.0156,673.6875 646.3281,672.0313 Q647.6563,670.375 650.1563,670.375 Q650.8594,670.375 651.5,670.5313 Q652.1563,670.6875 652.7188,670.9844 L652.7188,673.7031 Q652.0938,673.125 651.5,672.8594 Q650.9063,672.5781 650.2813,672.5781 Q648.9375,672.5781 648.25,673.6563 Q647.5625,674.7188 647.5625,676.8125 Q647.5625,678.9063 648.25,679.9844 Q648.9375,681.0469 650.2813,681.0469 Q650.9063,681.0469 651.5,680.7813 Q652.0938,680.5 652.7188,679.9219 L652.7188,682.6406 Z " fill="#000000"/><text fill="#000000" font-family="sans-serif" font-size="14" lengthAdjust="spacing" textLength="42" x="670.25" y="682.432">Graph</text><line style="stroke:#181818;stroke-width:0.5;" x1="442.5" x2="907.5" y1="693" y2="693"/><rect fill="none" height="6" style="stroke:#C82930;stroke-width:1.0;" width="6" x="449.5" y="705.034"/><text fill="#000000" font-family="sans-serif" font-size="14" lengthAdjust="spacing" textLength="181" x="461.5" y="711.9659">vertexSet : vector&lt;Vertex*&gt;</text><line style="stroke:#181818;stroke-width:0.5;" x1="442.5" x2="907.5" y1="720.0679" y2="720.0679"/><ellipse cx="452.5" cy="735.1019" fill="#84BE84" rx="3" ry="3" style="stroke:#038048;stroke-width:1.0;"/><text fill="#000000" font-family="sans-serif" font-size="14" lengthAdjust="spacing" textLength="212" x="461.5" y="739.0339">getVertexSet() : vector&lt;Vertex*&gt;</text><ellipse cx="452.5" cy="754.1698" fill="#84BE84" rx="3" ry="3" style="stroke:#038048;stroke-width:1.0;"/><text fill="#000000" font-family="sans-serif" font-size="14" lengthAdjust="spacing" textLength="137" x="461.5" y="758.1018">constructCity() : bool</text><ellipse cx="452.5" cy="773.2377" fill="#84BE84" rx="3" ry="3" style="stroke:#038048;stroke-width:1.0;"/><text fill="#000000" font-family="sans-serif" font-size="14" lengthAdjust="spacing" textLength="182" x="461.5" y="777.1697">findVertex(in : int) : Vertex*</text><ellipse cx="452.5" cy="792.3056" fill="#84BE84" rx="3" ry="3" style="stroke:#038048;stroke-width:1.0;"/><text fill="#000000" font-family="sans-serif" font-size="14" lengthAdjust="spacing" textLength="250" x="461.5" y="796.2376">addVertex(in : int, parking : int) : bool</text><ellipse cx="452.5" cy="811.3735" fill="#84BE84" rx="3" ry="3" style="stroke:#038048;stroke-width:1.0;"/><text fill="#000000" font-family="sans-serif" font-size="14" lengthAdjust="spacing" textLength="441" x="461.5" y="815.3055">addBidirectionalEdge(sourc : int, dest : int, d : double, w : double)</text></g><!--class InputData--><g id="elem_InputData"><rect codeLine="42" fill="#F1F1F1" height="238.6792" id="InputData" rx="2.5" ry="2.5" style="stroke:#181818;stroke-width:0.5;" width="289" x="173.5" y="219"/><ellipse cx="279.75" cy="235" fill="#F1F1F1" rx="11" ry="11" style="stroke:#181818;stroke-width:1.0;"/><path d="M279.2344,235.5625 Q277.375,234.8594 276.7188,234.0938 Q276.0781,233.3125 276.0781,232 Q276.0781,230.3125 277.1563,229.3438 Q278.2344,228.375 280.1094,228.375 Q280.9688,228.375 281.8125,228.5781 Q282.6719,228.7656 283.5156,229.1563 L283.5156,231.5469 Q282.7344,230.9844 281.9063,230.7031 Q281.0938,230.4063 280.2969,230.4063 Q279.4219,230.4063 278.9375,230.7656 Q278.4688,231.125 278.4688,231.7813 Q278.4688,232.2969 278.8125,232.6406 Q279.1563,232.9688 280.25,233.375 L281.3125,233.7813 Q282.7969,234.3281 283.5,235.2344 Q284.2188,236.1406 284.2188,237.5156 Q284.2188,239.3906 283.1094,240.3125 Q282,241.2344 279.75,241.2344 Q278.8281,241.2344 277.9063,241.0156 Q276.9844,240.7969 276.125,240.375 L276.125,237.8438 Q277.0938,238.5313 278.0156,238.875 Q278.9375,239.2188 279.8281,239.2188 Q280.7344,239.2188 281.2344,238.8125 Q281.7344,238.3906 281.7344,237.6563 Q281.7344,237.0938 281.3906,236.6875 Q281.0625,236.2656 280.4375,236.0156 L279.2344,235.5625 Z " fill="#000000"/><text fill="#000000" font-family="sans-serif" font-size="14" lengthAdjust="spacing" textLength="68" x="300.25" y="240.432">InputData</text><line style="stroke:#181818;stroke-width:0.5;" x1="174.5" x2="461.5" y1="251" y2="251"/><ellipse cx="184.5" cy="266.034" fill="none" rx="3" ry="3" style="stroke:#038048;stroke-width:1.0;"/><text fill="#000000" font-family="sans-serif" font-size="14" lengthAdjust="spacing" textLength="68" x="193.5" y="269.9659">mode : int</text><ellipse cx="184.5" cy="285.1019" fill="none" rx="3" ry="3" style="stroke:#038048;stroke-width:1.0;"/><text fill="#000000" font-family="sans-serif" font-size="14" lengthAdjust="spacing" textLength="75" x="193.5" y="289.0339">source : int</text><ellipse cx="184.5" cy="304.1698" fill="none" rx="3" ry="3" style="stroke:#038048;stroke-width:1.0;"/><text fill="#000000" font-family="sans-serif" font-size="14" lengthAdjust="spacing" textLength="106" x="193.5" y="308.1018">destination : int</text><ellipse cx="184.5" cy="323.2377" fill="none" rx="3" ry="3" style="stroke:#038048;stroke-width:1.0;"/><text fill="#000000" font-family="sans-serif" font-size="14" lengthAdjust="spacing" textLength="123" x="193.5" y="327.1697">maxWalkTime : int</text><ellipse cx="184.5" cy="342.3056" fill="none" rx="3" ry="3" style="stroke:#038048;stroke-width:1.0;"/><text fill="#000000" font-family="sans-serif" font-size="14" lengthAdjust="spacing" textLength="145" x="193.5" y="346.2376">avoidNodes : set&lt;int&gt;</text><ellipse cx="184.5" cy="361.3735" fill="none" rx="3" ry="3" style="stroke:#038048;stroke-width:1.0;"/><text fill="#000000" font-family="sans-serif" font-size="14" lengthAdjust="spacing" textLength="263" x="193.5" y="365.3055">avoidSegments : set&lt;std::pair&lt;int,int&gt;&gt;</text><ellipse cx="184.5" cy="380.4415" fill="none" rx="3" ry="3" style="stroke:#038048;stroke-width:1.0;"/><text fill="#000000" font-family="sans-serif" font-size="14" lengthAdjust="spacing" textLength="116" x="193.5" y="384.3734">includeNode : int</text><line style="stroke:#181818;stroke-width:0.5;" x1="174.5" x2="461.5" y1="392.4754" y2="392.4754"/><ellipse cx="184.5" cy="407.5094" fill="#84BE84" rx="3" ry="3" style="stroke:#038048;stroke-width:1.0;"/><text fill="#000000" font-family="sans-serif" font-size="14" lengthAdjust="spacing" textLength="250" x="193.5" y="411.4414">readInputFile(filename : string) : void</text><ellipse cx="184.5" cy="426.5773" fill="#84BE84" rx="3" ry="3" style="stroke:#038048;stroke-width:1.0;"/><text fill="#000000" font-family="sans-serif" font-size="14" lengthAdjust="spacing" textLength="139" x="193.5" y="430.5093">readTerminal() : void</text><ellipse cx="184.5" cy="445.6452" fill="#84BE84" rx="3" ry="3" style="stroke:#038048;stroke-width:1.0;"/><text fill="#000000" font-family="sans-serif" font-size="14" lengthAdjust="spacing" textLength="253" x="193.5" y="449.5772">in(choice : int, filename : string) : void</text></g><!--class OutputData--><g id="elem_OutputData"><rect codeLine="56" fill="#F1F1F1" height="486.5621" id="OutputData" rx="2.5" ry="2.5" style="stroke:#181818;stroke-width:0.5;" width="355" x="497.5" y="95"/><ellipse cx="631.25" cy="111" fill="#F1F1F1" rx="11" ry="11" style="stroke:#181818;stroke-width:1.0;"/><path d="M630.7344,111.5625 Q628.875,110.8594 628.2188,110.0938 Q627.5781,109.3125 627.5781,108 Q627.5781,106.3125 628.6563,105.3438 Q629.7344,104.375 631.6094,104.375 Q632.4688,104.375 633.3125,104.5781 Q634.1719,104.7656 635.0156,105.1563 L635.0156,107.5469 Q634.2344,106.9844 633.4063,106.7031 Q632.5938,106.4063 631.7969,106.4063 Q630.9219,106.4063 630.4375,106.7656 Q629.9688,107.125 629.9688,107.7813 Q629.9688,108.2969 630.3125,108.6406 Q630.6563,108.9688 631.75,109.375 L632.8125,109.7813 Q634.2969,110.3281 635,111.2344 Q635.7188,112.1406 635.7188,113.5156 Q635.7188,115.3906 634.6094,116.3125 Q633.5,117.2344 631.25,117.2344 Q630.3281,117.2344 629.4063,117.0156 Q628.4844,116.7969 627.625,116.375 L627.625,113.8438 Q628.5938,114.5313 629.5156,114.875 Q630.4375,115.2188 631.3281,115.2188 Q632.2344,115.2188 632.7344,114.8125 Q633.2344,114.3906 633.2344,113.6563 Q633.2344,113.0938 632.8906,112.6875 Q632.5625,112.2656 631.9375,112.0156 L630.7344,111.5625 Z " fill="#000000"/><text fill="#000000" font-family="sans-serif" font-size="14" lengthAdjust="spacing" textLength="79" x="651.75" y="116.432">OutputData</text><line style="stroke:#181818;stroke-width:0.5;" x1="498.5" x2="851.5" y1="127" y2="127"/><ellipse cx="508.5" cy="142.034" fill="none" rx="3" ry="3" style="stroke:#038048;stroke-width:1.0;"/><text fill="#000000" font-family="sans-serif" font-size="14" lengthAdjust="spacing" textLength="75" x="517.5" y="145.9659">source : int</text><ellipse cx="508.5" cy="161.1019" fill="none" rx="3" ry="3" style="stroke:#038048;stroke-width:1.0;"/><text fill="#000000" font-family="sans-serif" font-size="14" lengthAdjust="spacing" textLength="106" x="517.5" y="165.0339">destination : int</text><ellipse cx="508.5" cy="180.1698" fill="none" rx="3" ry="3" style="stroke:#038048;stroke-width:1.0;"/><text fill="#000000" font-family="sans-serif" font-size="14" lengthAdjust="spacing" textLength="126" x="517.5" y="184.1018">parkingNode1 : int</text><ellipse cx="508.5" cy="199.2377" fill="none" rx="3" ry="3" style="stroke:#038048;stroke-width:1.0;"/><text fill="#000000" font-family="sans-serif" font-size="14" lengthAdjust="spacing" textLength="126" x="517.5" y="203.1697">parkingNode2 : int</text><ellipse cx="508.5" cy="218.3056" fill="none" rx="3" ry="3" style="stroke:#038048;stroke-width:1.0;"/><text fill="#000000" font-family="sans-serif" font-size="14" lengthAdjust="spacing" textLength="204" x="517.5" y="222.2376">bestDrivingRoute : vector&lt;int&gt;</text><ellipse cx="508.5" cy="237.3735" fill="none" rx="3" ry="3" style="stroke:#038048;stroke-width:1.0;"/><text fill="#000000" font-family="sans-serif" font-size="14" lengthAdjust="spacing" textLength="209" x="517.5" y="241.3055">bestWalkingRoute : vector&lt;int&gt;</text><ellipse cx="508.5" cy="256.4415" fill="none" rx="3" ry="3" style="stroke:#038048;stroke-width:1.0;"/><text fill="#000000" font-family="sans-serif" font-size="14" lengthAdjust="spacing" textLength="255" x="517.5" y="260.3734">alternativeDrivingRoute1 : vector&lt;int&gt;</text><ellipse cx="508.5" cy="275.5094" fill="none" rx="3" ry="3" style="stroke:#038048;stroke-width:1.0;"/><text fill="#000000" font-family="sans-serif" font-size="14" lengthAdjust="spacing" textLength="255" x="517.5" y="279.4414">alternativeDrivingRoute2 : vector&lt;int&gt;</text><ellipse cx="508.5" cy="294.5773" fill="none" rx="3" ry="3" style="stroke:#038048;stroke-width:1.0;"/><text fill="#000000" font-family="sans-serif" font-size="14" lengthAdjust="spacing" textLength="260" x="517.5" y="298.5093">alternativeWalkingRoute1 : vector&lt;int&gt;</text><ellipse cx="508.5" cy="313.6452" fill="none" rx="3" ry="3" style="stroke:#038048;stroke-width:1.0;"/><text fill="#000000" font-family="sans-serif" font-size="14" lengthAdjust="spacing" textLength="260" x="517.5" y="317.5772">alternativeWalkingRoute2 : vector&lt;int&gt;</text><ellipse cx="508.5" cy="332.7131" fill="none" rx="3" ry="3" style="stroke:#038048;stroke-width:1.0;"/><text fill="#000000" font-family="sans-serif" font-size="14" lengthAdjust="spacing" textLength="112" x="517.5" y="336.6451">message : string</text><ellipse cx="508.5" cy="351.781" fill="none" rx="3" ry="3" style="stroke:#038048;stroke-width:1.0;"/><text fill="#000000" font-family="sans-serif" font-size="14" lengthAdjust="spacing" textLength="135" x="517.5" y="355.713">min_time_1 : double</text><ellipse cx="508.5" cy="370.849" fill="none" rx="3" ry="3" style="stroke:#038048;stroke-width:1.0;"/><text fill="#000000" font-family="sans-serif" font-size="14" lengthAdjust="spacing" textLength="135" x="517.5" y="374.7809">min_time_2 : double</text><ellipse cx="508.5" cy="389.9169" fill="none" rx="3" ry="3" style="stroke:#038048;stroke-width:1.0;"/><text fill="#000000" font-family="sans-serif" font-size="14" lengthAdjust="spacing" textLength="135" x="517.5" y="393.8489">min_time_3 : double</text><ellipse cx="508.5" cy="408.9848" fill="none" rx="3" ry="3" style="stroke:#038048;stroke-width:1.0;"/><text fill="#000000" font-family="sans-serif" font-size="14" lengthAdjust="spacing" textLength="135" x="517.5" y="412.9168">min_time_4 : double</text><ellipse cx="508.5" cy="428.0527" fill="none" rx="3" ry="3" style="stroke:#038048;stroke-width:1.0;"/><text fill="#000000" font-family="sans-serif" font-size="14" lengthAdjust="spacing" textLength="133" x="517.5" y="431.9847">total_time1 : double</text><ellipse cx="508.5" cy="447.1206" fill="none" rx="3" ry="3" style="stroke:#038048;stroke-width:1.0;"/><text fill="#000000" font-family="sans-serif" font-size="14" lengthAdjust="spacing" textLength="133" x="517.5" y="451.0526">total_time2 : double</text><line style="stroke:#181818;stroke-width:0.5;" x1="498.5" x2="851.5" y1="459.1546" y2="459.1546"/><ellipse cx="508.5" cy="474.1885" fill="#84BE84" rx="3" ry="3" style="stroke:#038048;stroke-width:1.0;"/><text fill="#000000" font-family="sans-serif" font-size="14" lengthAdjust="spacing" textLength="203" x="517.5" y="478.1205">printRoute(route : vector&lt;int&gt;)</text><ellipse cx="508.5" cy="493.2565" fill="#84BE84" rx="3" ry="3" style="stroke:#038048;stroke-width:1.0;"/><text fill="#000000" font-family="sans-serif" font-size="14" lengthAdjust="spacing" textLength="158" x="517.5" y="497.1884">print_multiroute() : void</text><ellipse cx="508.5" cy="512.3244" fill="#84BE84" rx="3" ry="3" style="stroke:#038048;stroke-width:1.0;"/><text fill="#000000" font-family="sans-serif" font-size="14" lengthAdjust="spacing" textLength="194" x="517.5" y="516.2564">print_restricted_route() : void</text><ellipse cx="508.5" cy="531.3923" fill="#84BE84" rx="3" ry="3" style="stroke:#038048;stroke-width:1.0;"/><text fill="#000000" font-family="sans-serif" font-size="14" lengthAdjust="spacing" textLength="228" x="517.5" y="535.3243">print_restricted_drive_walk() : void</text><ellipse cx="508.5" cy="550.4602" fill="#84BE84" rx="3" ry="3" style="stroke:#038048;stroke-width:1.0;"/><text fill="#000000" font-family="sans-serif" font-size="14" lengthAdjust="spacing" textLength="235" x="517.5" y="554.3922">print_alternative_drive_walk() : void</text><ellipse cx="508.5" cy="569.5281" fill="#84BE84" rx="3" ry="3" style="stroke:#038048;stroke-width:1.0;"/><text fill="#000000" font-family="sans-serif" font-size="14" lengthAdjust="spacing" textLength="329" x="517.5" y="573.4601">out(choice : int, mode : string, isRestricted : bool)</text></g><g id="elem_GMN7"><path d="M715,6 L715,33.706 L1219,33.706 L1219,16 L1209,6 L715,6 " fill="#FEFFDD" style="stroke:#181818;stroke-width:0.5;"/><path d="M1209,6 L1209,16 L1219,16 L1209,6 " fill="#FEFFDD" style="stroke:#181818;stroke-width:1.0;"/><text fill="#000000" font-family="sans-serif" font-size="13" lengthAdjust="spacing" textLength="483" x="721" y="24.897">For each printing method, there is a variant for CLI and another for an output file.</text></g><!--class Csv--><g id="elem_Csv"><rect codeLine="87" fill="#F1F1F1" height="105.2038" id="Csv" rx="2.5" ry="2.5" style="stroke:#181818;stroke-width:0.5;" width="253" x="803.5" y="979.5"/><ellipse cx="914.25" cy="995.5" fill="#ADD1B2" rx="11" ry="11" style="stroke:#181818;stroke-width:1.0;"/><path d="M917.2188,1001.1406 Q916.6406,1001.4375 916,1001.5781 Q915.3594,1001.7344 914.6563,1001.7344 Q912.1563,1001.7344 910.8281,1000.0938 Q909.5156,998.4375 909.5156,995.3125 Q909.5156,992.1875 910.8281,990.5313 Q912.1563,988.875 914.6563,988.875 Q915.3594,988.875 916,989.0313 Q916.6563,989.1875 917.2188,989.4844 L917.2188,992.2031 Q916.5938,991.625 916,991.3594 Q915.4063,991.0781 914.7813,991.0781 Q913.4375,991.0781 912.75,992.1563 Q912.0625,993.2188 912.0625,995.3125 Q912.0625,997.4063 912.75,998.4844 Q913.4375,999.5469 914.7813,999.5469 Q915.4063,999.5469 916,999.2813 Q916.5938,999 917.2188,998.4219 L917.2188,1001.1406 Z " fill="#000000"/><text fill="#000000" font-family="sans-serif" font-size="14" lengthAdjust="spacing" textLength="23" x="934.75" y="1000.932">Csv</text><line style="stroke:#181818;stroke-width:0.5;" x1="804.5" x2="1055.5" y1="1011.5" y2="1011.5"/><rect fill="none" height="6" style="stroke:#C82930;stroke-width:1.0;" width="6" x="811.5" y="1023.534"/><text fill="#000000" font-family="sans-serif" font-size="14" lengthAdjust="spacing" textLength="192" x="823.5" y="1030.4659">data: vector&lt;vector&lt;string&gt;&gt;</text><line style="stroke:#181818;stroke-width:0.5;" x1="804.5" x2="1055.5" y1="1038.5679" y2="1038.5679"/><ellipse cx="814.5" cy="1053.6019" fill="#84BE84" rx="3" ry="3" style="stroke:#038048;stroke-width:1.0;"/><text fill="#000000" font-family="sans-serif" font-size="14" lengthAdjust="spacing" textLength="217" x="823.5" y="1057.5339">readCSV(file_name: string) : void</text><ellipse cx="814.5" cy="1072.6698" fill="#84BE84" rx="3" ry="3" style="stroke:#038048;stroke-width:1.0;"/><text fill="#000000" font-family="sans-serif" font-size="14" lengthAdjust="spacing" textLength="227" x="823.5" y="1076.6018">getData() : vector&lt;vector&lt;string&gt;&gt;</text></g><!--class MutablePriorityQueue--><g id="elem_MutablePriorityQueue"><rect codeLine="94" fill="#F1F1F1" height="143.3396" id="MutablePriorityQueue" rx="2.5" ry="2.5" style="stroke:#181818;stroke-width:0.5;" width="217" x="235.5" y="960.5"/><ellipse cx="262.2" cy="976.5" fill="#ADD1B2" rx="11" ry="11" style="stroke:#181818;stroke-width:1.0;"/><path d="M265.1688,982.1406 Q264.5906,982.4375 263.95,982.5781 Q263.3094,982.7344 262.6063,982.7344 Q260.1063,982.7344 258.7781,981.0938 Q257.4656,979.4375 257.4656,976.3125 Q257.4656,973.1875 258.7781,971.5313 Q260.1063,969.875 262.6063,969.875 Q263.3094,969.875 263.95,970.0313 Q264.6063,970.1875 265.1688,970.4844 L265.1688,973.2031 Q264.5438,972.625 263.95,972.3594 Q263.3563,972.0781 262.7313,972.0781 Q261.3875,972.0781 260.7,973.1563 Q260.0125,974.2188 260.0125,976.3125 Q260.0125,978.4063 260.7,979.4844 Q261.3875,980.5469 262.7313,980.5469 Q263.3563,980.5469 263.95,980.2813 Q264.5438,980 265.1688,979.4219 L265.1688,982.1406 Z " fill="#000000"/><text fill="#000000" font-family="sans-serif" font-size="14" lengthAdjust="spacing" textLength="149" x="278.8" y="981.932">MutablePriorityQueue</text><rect fill="#FFFFFF" height="18.3441" style="stroke:#181818;stroke-width:1.0;stroke-dasharray:2.0,2.0;" width="8" x="447.5" y="957.5"/><text fill="#000000" font-family="sans-serif" font-size="12" font-style="italic" lengthAdjust="spacing" textLength="6" x="448.5" y="971.3281">T</text><line style="stroke:#181818;stroke-width:0.5;" x1="236.5" x2="451.5" y1="992.5" y2="992.5"/><rect fill="none" height="6" style="stroke:#C82930;stroke-width:1.0;" width="6" x="243.5" y="1004.534"/><text fill="#000000" font-family="sans-serif" font-size="14" lengthAdjust="spacing" textLength="111" x="255.5" y="1011.4659">heap : vector&lt;T&gt;</text><line style="stroke:#181818;stroke-width:0.5;" x1="236.5" x2="451.5" y1="1019.5679" y2="1019.5679"/><ellipse cx="246.5" cy="1034.6019" fill="#84BE84" rx="3" ry="3" style="stroke:#038048;stroke-width:1.0;"/><text fill="#000000" font-family="sans-serif" font-size="14" lengthAdjust="spacing" textLength="141" x="255.5" y="1038.5339">insert(item: T*) : void</text><ellipse cx="246.5" cy="1053.6698" fill="#84BE84" rx="3" ry="3" style="stroke:#038048;stroke-width:1.0;"/><text fill="#000000" font-family="sans-serif" font-size="14" lengthAdjust="spacing" textLength="108" x="255.5" y="1057.6018">extractMin() : T*</text><ellipse cx="246.5" cy="1072.7377" fill="#84BE84" rx="3" ry="3" style="stroke:#038048;stroke-width:1.0;"/><text fill="#000000" font-family="sans-serif" font-size="14" lengthAdjust="spacing" textLength="191" x="255.5" y="1076.6697">decreaseKey(item : T*) : void</text><ellipse cx="246.5" cy="1091.8056" fill="#84BE84" rx="3" ry="3" style="stroke:#038048;stroke-width:1.0;"/><text fill="#000000" font-family="sans-serif" font-size="14" lengthAdjust="spacing" textLength="91" x="255.5" y="1095.7376">empty() : bool</text></g><g id="elem_GMN19"><path d="M175.5,728 L175.5,755.706 A0,0 0 0 0 175.5,755.706 L289.42,755.706 L331.02,960.49 L297.42,755.706 L406.5,755.706 A0,0 0 0 0 406.5,755.706 L406.5,738 L396.5,728 L175.5,728 A0,0 0 0 0 175.5,728 " fill="#FEFFDD" style="stroke:#181818;stroke-width:0.5;"/><path d="M396.5,728 L396.5,738 L406.5,738 L396.5,728 " fill="#FEFFDD" style="stroke:#181818;stroke-width:0.5;"/><text fill="#000000" font-family="sans-serif" font-size="13" lengthAdjust="spacing" textLength="210" x="181.5" y="746.897">Located in MutablePriorityQueue.h</text></g><g id="elem_GMN22"><path d="M944,728 L944,755.706 A0,0 0 0 0 944,755.706 L996.63,755.706 L943.24,979.47 L1004.63,755.706 L1064,755.706 A0,0 0 0 0 1064,755.706 L1064,738 L1054,728 L944,728 A0,0 0 0 0 944,728 " fill="#FEFFDD" style="stroke:#181818;stroke-width:0.5;"/><path d="M1054,728 L1054,738 L1064,738 L1054,728 " fill="#FEFFDD" style="stroke:#181818;stroke-width:0.5;"/><text fill="#000000" font-family="sans-serif" font-size="13" lengthAdjust="spacing" textLength="99" x="950" y="746.897">Located in CSV.h</text></g><g id="elem_GMN25"><path d="M510.5,6 L510.5,33.706 A0,0 0 0 0 510.5,33.706 L594.34,33.706 L613.62,94.68 L602.34,33.706 L679.5,33.706 A0,0 0 0 0 679.5,33.706 L679.5,16 L669.5,6 L510.5,6 A0,0 0 0 0 510.5,6 " fill="#FEFFDD" style="stroke:#181818;stroke-width:0.5;"/><path d="M669.5,6 L669.5,16 L679.5,16 L669.5,6 " fill="#FEFFDD" style="stroke:#181818;stroke-width:0.5;"/><text fill="#000000" font-family="sans-serif" font-size="13" lengthAdjust="spacing" textLength="148" x="516.5" y="24.897">Located in OutputData.h</text></g><g id="elem_GMN28"><path d="M239,6 L239,33.706 A0,0 0 0 0 239,33.706 L314,33.706 L318,218.66 L322,33.706 L397,33.706 A0,0 0 0 0 397,33.706 L397,16 L387,6 L239,6 A0,0 0 0 0 239,6 " fill="#FEFFDD" style="stroke:#181818;stroke-width:0.5;"/><path d="M387,6 L387,16 L397,16 L387,6 " fill="#FEFFDD" style="stroke:#181818;stroke-width:0.5;"/><text fill="#000000" font-family="sans-serif" font-size="13" lengthAdjust="spacing" textLength="137" x="245" y="24.897">Located in InputData.h</text></g><g id="elem_GMN31"><path d="M888,324.5 L888,352.206 L1022,352.206 L1022,334.5 L1012,324.5 L888,324.5 " fill="#FEFFDD" style="stroke:#181818;stroke-width:0.5;"/><path d="M1012,324.5 L1012,334.5 L1022,334.5 L1012,324.5 " fill="#FEFFDD" style="stroke:#181818;stroke-width:1.0;"/><text fill="#000000" font-family="sans-serif" font-size="13" lengthAdjust="spacing" textLength="113" x="894" y="343.397">Located in Graph.h</text></g><g id="elem_GMN34"><path d="M488,1018 L488,1045.706 A0,0 0 0 0 488,1045.706 L551,1045.706 L555,1240.94 L559,1045.706 L622,1045.706 A0,0 0 0 0 622,1045.706 L622,1028 L612,1018 L488,1018 A0,0 0 0 0 488,1018 " fill="#FEFFDD" style="stroke:#181818;stroke-width:0.5;"/><path d="M612,1018 L612,1028 L622,1028 L612,1018 " fill="#FEFFDD" style="stroke:#181818;stroke-width:0.5;"/><text fill="#000000" font-family="sans-serif" font-size="13" lengthAdjust="spacing" textLength="113" x="494" y="1036.897">Located in Graph.h</text></g><g id="elem_GMN37"><path d="M6,728 L6,755.706 A0,0 0 0 0 6,755.706 L70.5,755.706 L89.15,883.97 L78.5,755.706 L140,755.706 A0,0 0 0 0 140,755.706 L140,738 L130,728 L6,728 A0,0 0 0 0 6,728 " fill="#FEFFDD" style="stroke:#181818;stroke-width:0.5;"/><path d="M130,728 L130,738 L140,738 L130,728 " fill="#FEFFDD" style="stroke:#181818;stroke-width:0.5;"/><text fill="#000000" font-family="sans-serif" font-size="13" lengthAdjust="spacing" textLength="113" x="12" y="746.897">Located in Graph.h</text></g><!--link GMN7 to OutputData--><g id="link_GMN7_OutputData"><path d="M947.16,34.23 C926.95,48.16 895.23,71.32 871,95 C864.9,100.96 858.81,107.1 852.75,113.39 " fill="none" id="GMN7-OutputData" style="stroke:#181818;stroke-width:1.0;stroke-dasharray:7.0,7.0;"/></g><!--reverse link Graph to Vertex--><g id="link_Graph_Vertex"><path codeLine="104" d="M429.7792,821.2368 C423.9792,823.0368 429.68,821.25 424,823 C332.73,851.06 296.6,829.79 218,884 C212.06,888.1 206.29,892.61 200.73,897.44 " fill="none" id="Graph-backto-Vertex" style="stroke:#181818;stroke-width:1.0;"/><polygon fill="#181818" points="441.24,817.68,434.324,815.6381,429.7792,821.2368,436.6952,823.2787,441.24,817.68" style="stroke:#181818;stroke-width:1.0;"/><text fill="#000000" font-family="sans-serif" font-size="13" lengthAdjust="spacing" textLength="7" x="426.4549" y="816.7863">1</text><text fill="#000000" font-family="sans-serif" font-size="13" lengthAdjust="spacing" textLength="20" x="208.4211" y="883.8613">0..*</text></g><!--reverse link Graph to Edge--><g id="link_Graph_Edge"><path codeLine="105" d="M677.2195,834.9999 C677.6595,923.7599 672.47,1058.49 640,1180 C634.62,1200.15 627.03,1220.81 618.58,1240.6 " fill="none" id="Graph-backto-Edge" style="stroke:#181818;stroke-width:1.0;"/><polygon fill="#181818" points="677.16,823,673.1898,829.0198,677.2195,834.9999,681.1897,828.9801,677.16,823" style="stroke:#181818;stroke-width:1.0;"/><text fill="#000000" font-family="sans-serif" font-size="13" lengthAdjust="spacing" textLength="7" x="670.0323" y="845.4417">1</text><text fill="#000000" font-family="sans-serif" font-size="13" lengthAdjust="spacing" textLength="20" x="602.0125" y="1229.3043">0..*</text></g><!--reverse link Vertex to Edge--><g id="link_Vertex_Edge"><path codeLine="106" d="M209.2729,1172.5577 C214.8729,1178.1477 212.13,1175.01 218,1180 C257.39,1213.49 304.07,1243.24 349.93,1268.41 " fill="none" id="Vertex-backto-Edge" style="stroke:#181818;stroke-width:1.0;"/><polygon fill="none" points="200.78,1164.08,202.2005,1171.1498,209.2729,1172.5577,207.8523,1165.4879,200.78,1164.08" style="stroke:#181818;stroke-width:1.0;"/><text fill="#000000" font-family="sans-serif" font-size="13" lengthAdjust="spacing" textLength="7" x="208.6117" y="1170.8576">1</text><text fill="#000000" font-family="sans-serif" font-size="13" lengthAdjust="spacing" textLength="20" x="322.2009" y="1261.7105">0..*</text></g><!--link Graph to Csv--><g id="link_Graph_Csv"><path codeLine="107" d="M746.03,823.22 C790.24,873.16 841.8218,931.4185 880.2618,974.8185 " fill="none" id="Graph-to-Csv" style="stroke:#181818;stroke-width:1.0;"/><polygon fill="#181818" points="884.24,979.31,881.267,969.9206,880.9248,975.5671,875.2783,975.2248,884.24,979.31" style="stroke:#181818;stroke-width:1.0;"/></g><!--link Graph to MutablePriorityQueue--><g id="link_Graph_MutablePriorityQueue"><path codeLine="108" d="M548.5,823.01 C521.94,841.82 494.79,862.65 471,884 C445.4,906.98 423.8918,930.3796 402.6418,955.7596 " fill="none" id="Graph-to-MutablePriorityQueue" style="stroke:#181818;stroke-width:1.0;"/><polygon fill="#181818" points="398.79,960.36,407.6346,956.0273,401.9998,956.5263,401.5008,950.8915,398.79,960.36" style="stroke:#181818;stroke-width:1.0;"/></g><!--link InputData to Graph--><g id="link_InputData_Graph"><path codeLine="111" d="M387.21,458.17 C413.77,499.34 445.94,544.54 480,582 C505.42,609.96 531.2652,633.3841 560.5152,657.1741 " fill="none" id="InputData-to-Graph" style="stroke:#181818;stroke-width:1.0;stroke-dasharray:7.0,7.0;"/><polygon fill="#181818" points="565.17,660.96,560.7118,652.178,561.291,657.8051,555.6639,658.3844,565.17,660.96" style="stroke:#181818;stroke-width:1.0;"/><polygon fill="#000000" points="537.2837,625.6236,533.5598,616.8724,529.1271,620.7326,537.2837,625.6236" style="stroke:#000000;stroke-width:1.0;"/><text fill="#000000" font-family="sans-serif" font-size="13" lengthAdjust="spacing" textLength="27" x="543" y="626.897">uses</text></g><!--link OutputData to Graph--><g id="link_OutputData_Graph"><path codeLine="112" d="M675,582.03 C675,610.14 675,631.11 675,654.6 " fill="none" id="OutputData-to-Graph" style="stroke:#181818;stroke-width:1.0;stroke-dasharray:7.0,7.0;"/><polygon fill="#181818" points="675,660.6,679,651.6,675,655.6,671,651.6,675,660.6" style="stroke:#181818;stroke-width:1.0;"/><polygon fill="#000000" points="680,626.853,682.9389,617.8079,677.0611,617.8079,680,626.853" style="stroke:#000000;stroke-width:1.0;"/><text fill="#000000" font-family="sans-serif" font-size="13" lengthAdjust="spacing" textLength="27" x="689" y="626.897">uses</text></g><!--link GMN31 to Graph--><g id="link_GMN31_Graph"><path d="M952.97,352.75 C946.54,391.26 923.82,505.32 870,582 C849.49,611.23 822.19,638.01 794.53,660.91 " fill="none" id="GMN31-Graph" style="stroke:#181818;stroke-width:1.0;stroke-dasharray:7.0,7.0;"/></g><!--SRC=[bLRRRXCn47tFLrXz8Gr9H0fFKHK9oaKLbnOQbSV8NKyImwwzihsX5U9hUE0B-8B-6EFBUftDBj18IJPpPiOpPyOpoNAgDRa6PU2MV1yGV4r8ISsMpCahje5H47sZ-TVBG_6EQsw0eVH6oZoQgwzSRF292nDaNApbde2oBsYrWyn8TMfTaj5YuB378PmX5wY15cDI-eVZW6_0NFepXiSUQO1pFEXGQaDtqYPu9_ySqkh2dhClJfp4Y25wcEjhdxdJSBd_60moHwPBfgPIAhv13PzHpHe3RGw5Yky0fKnMDpaaj3UoSBWzOBZlUDpoYR-ZsPXyYyy9WnVem4MVXk6Gb-Yg1pcCCTBOY2CJRnGjjv6AdVDs1QRXD1mG2u-khckjbFkevzKoARHHLMREkBbhAk31DHUirK27kL363fiij6qqIPoY_WlEkC9mk1GqToNGib9PRHtuzyyzt2CnFcvoBihAlAI61dOUaq8osEjQvtrVPC_WWjeGl9pKnlJMbc392zW7w4vozW5TQvHhCAU8BLBi2ZO525F3sh3vlAHSMSMnLOuTBxAyOl0XXadgeYcWpENpckSmNEE7e2uEp1NvT6N4anBj9QW2yyY7BOoBORQLlCvwJFgTDLHULARDvVzG5-IXw3QjMHzmiWVSe2Tx3n3y92i3JPSct5ebMv6_Aj7SWB8nxI1rE7k8yic_bDCePWzHxlPSWDPqqnIa5dEnCjXzgrbxEaJaf1TvseiyQoD66fexRDOFdHnCp193DIwheJeint6gjIggt72drMvFZokmcMSu-rV_f-K6-yfEycxLXF-_wE9HhSiH9eQlmnXNqgTuPXXURk88YVaQMHAvJkwAy_fQAW8qs_f0xEmhm6mb6nEp1GNeab2oeufJlEvhL3vxTqweOFYMLiF9gB2neLjtMwS3GDoUMI-1CxsBAu3XoP7wyENZNopISN9sTUq6oSfU_fv1OjSHkalNHDjZN4JlAqEn7IuLnxLfxZvMKC7fSX7ZsW8j6pTBt-nnA6dS54DSziMSB4UjAE3MA9gPzpYwBB8SnNcJOI8QtiATCoLTjaMPhY-CzX5vhhNCEBt_TVyRPpPEPYm3rSIb0NhWD-hHx8YC9XDoz6Gw7Hs5rTQDsKKr27_lB2HRa3UQJ1QsJiclBiPiVCtYWdJowlkV4fbYK6BvCMeCjT6SJXVXhy2SL9W5MGmIqmvqhsSx8x44lfCPjRsE6xnBPxfDMZ5rQ1DjsME_zQgtxanYrI2znf64jcq4UaqT9sqp9-mrSHLza4LedN_P_040]--></g></svg>